<?xml version="1.0" encoding="UTF-8"?>
<!DOCTYPE svg PUBLIC "-//W3C//DTD SVG 1.1//EN" "http://www.w3.org/Graphics/SVG/1.1/DTD/svg11.dtd">
<!-- Creator: CorelDRAW 2018 (64-Bit) -->
<svg xmlns="http://www.w3.org/2000/svg" xml:space="preserve" width="297mm" height="210mm" version="1.1" style="shape-rendering:geometricPrecision; text-rendering:geometricPrecision; image-rendering:optimizeQuality; fill-rule:evenodd; clip-rule:evenodd"
viewBox="0 0 29700 21000"
 xmlns:xlink="http://www.w3.org/1999/xlink">
 <defs>
  <style type="text/css">
   <![CDATA[
    .fil2 {fill:white}
    .fil5 {fill:#E60D2E}
    .fil4 {fill:#003896}
    .fil0 {fill:white;fill-rule:nonzero}
    .fil3 {fill:#E60D2E;fill-rule:nonzero}
    .fil1 {fill:#003896;fill-rule:nonzero}
   ]]>
  </style>
 </defs>
 <g id="Layer_x0020_1">
  <metadata id="CorelCorpID_0Corel-Layer"/>
  <polygon class="fil0" points="8865,13940.09 20835,13940.09 20835,15970.98 8865,15970.98 "/>
  <path class="fil0" d="M14869.28 13415.97c-437.13,0 -848.57,-170.33 -1157.14,-471.7l-4075.72 -4074.89c-308.57,-314.47 -475.7,-720.67 -475.7,-1153.06 0,-445.48 167.13,-851.65 475.7,-1153.02l4075.72 -4074.92c308.57,-314.47 720.01,-471.7 1157.14,-471.7 424.29,0 835.72,157.23 1144.3,471.7l4075.68 4074.92c308.57,301.37 475.74,707.54 475.74,1153.02 0,432.39 -167.17,838.59 -475.74,1153.06l-4075.68 4074.89c-308.58,301.37 -720.01,471.7 -1144.3,471.7z"/>
  <path class="fil1" d="M14869.28 13232.55c-424.28,0 -822.84,-170.35 -1118.57,-458.6l-3947.12 -3943.88c-295.73,-301.37 -462.86,-694.45 -462.86,-1113.75 0,-419.26 167.13,-825.46 462.86,-1113.71l3947.12 -3943.88c295.73,-301.37 694.29,-458.6 1118.57,-458.6 411.44,0 810,157.23 1105.72,458.6l3947.13 3943.88c295.72,288.25 462.86,694.45 462.86,1113.71 0,419.3 -167.14,812.38 -462.86,1113.75l-3947.13 3943.88c-295.72,288.25 -694.28,458.6 -1105.72,458.6zm0 -10862.1c-385.71,0 -732.85,144.14 -1002.85,406.2l-3947.13 3943.88c-257.15,262.07 -411.44,615.84 -411.44,995.79 0,366.9 154.29,720.67 411.44,995.82l3947.13 3930.79c270,275.16 617.14,419.27 1002.85,419.27 372.87,0 720.01,-144.11 990.01,-419.27l3947.13 -3930.79c257.15,-275.15 411.43,-628.92 411.43,-995.82 0,-379.95 -154.28,-733.72 -411.43,-995.79l-3947.13 -3943.88c-270,-262.06 -617.14,-406.2 -990.01,-406.2z"/>
  <path class="fil2" d="M11706.43 14385.57c-89.99,0 -141.44,52.4 -180.01,131.02 -51.42,131.04 -64.27,314.46 -64.27,445.51 0,157.23 12.85,366.86 102.84,497.88 38.57,52.43 77.14,65.52 141.44,65.52 38.57,0 77.14,0 102.87,-26.22 51.41,-39.3 77.14,-104.8 89.99,-157.23 38.57,-117.92 51.41,-248.94 51.41,-366.86 0,-117.92 0,-288.25 -51.41,-406.17 -12.85,-52.43 -38.58,-117.93 -77.15,-144.14 -38.57,-26.22 -77.14,-39.31 -115.71,-39.31zm-1684.29 39.31l0 1048.22 0 26.18c64.29,0 115.71,-26.18 141.43,-78.61 89.99,-117.93 102.87,-314.47 102.87,-445.48 0,-131.02 -12.88,-288.25 -64.29,-406.17 -25.73,-52.43 -64.3,-104.83 -115.72,-117.93 -12.84,-13.12 -38.57,-13.12 -64.29,-26.21zm848.57 196.54c38.57,-117.93 102.86,-222.76 192.85,-327.56 180.01,-183.44 385.72,-262.06 630.02,-248.97 257.12,-13.09 475.71,65.53 655.72,248.97 167.13,183.42 244.27,406.17 244.27,655.11 0,222.76 -51.42,419.3 -180.01,589.62 -167.13,235.85 -411.41,353.77 -707.13,353.77 -282.85,0 -527.15,-104.8 -694.29,-340.65 -64.29,-78.61 -115.71,-170.35 -141.43,-262.06 0,13.09 -12.85,13.09 -12.85,13.09 -25.72,104.84 -77.14,196.54 -141.44,275.16 -64.26,65.52 -141.41,117.92 -218.55,170.35 -90.02,39.31 -192.86,65.5 -282.88,91.71 -77.14,13.09 -154.28,13.09 -231.42,13.09l-771.43 0 0 -314.46 180.01 0c0,0 12.84,0 12.84,0 12.88,-26.18 0,-65.49 0,-78.61l0 -995.79c0,-26.22 12.88,-52.4 0,-78.62 0,-13.09 -12.84,-13.09 -12.84,-13.09l-180.01 0 0 -314.46 771.43 0c154.28,0 321.44,26.18 475.73,91.7 141.41,65.53 270,183.45 347.14,327.56 25.7,52.43 38.57,91.74 64.27,144.14zm8755.7 -235.85c-89.99,0 -141.41,52.4 -179.98,131.02 -51.45,131.04 -64.3,314.46 -64.3,445.51 0,157.23 12.85,366.86 102.87,497.88 38.57,52.43 77.14,65.52 141.41,65.52 38.57,0 64.29,0 102.86,-26.22 38.57,-39.3 77.15,-104.8 89.99,-157.23 38.57,-117.92 51.45,-248.94 51.45,-366.86 0,-117.92 -12.88,-288.25 -51.45,-406.17 -12.84,-52.43 -38.57,-117.93 -89.99,-144.14 -25.72,-26.22 -64.29,-39.31 -102.86,-39.31zm-2712.85 327.56l-12.84 -26.19c-12.88,-78.61 -38.57,-157.23 -102.87,-222.75 -51.42,-39.31 -102.87,-78.62 -167.13,-78.62 -25.73,0 -51.45,0 -77.15,26.22 -12.87,13.09 -25.72,26.18 -25.72,39.3 0,0 0,13.1 12.85,13.1 12.87,26.21 38.57,52.4 51.45,65.52 64.26,39.31 154.28,91.71 218.55,117.92 25.72,26.19 64.29,39.31 102.86,65.5zm-578.57 406.2l0 26.18c25.73,117.93 64.3,222.76 141.44,301.37 51.42,52.4 115.72,91.71 192.86,91.71 38.57,0 77.14,-13.09 89.99,-26.18 25.72,-26.22 38.57,-39.31 38.57,-65.53 0,-13.09 -12.85,-26.21 -12.85,-39.3 -12.87,-26.22 -25.72,-39.31 -51.45,-52.4 -38.57,-39.31 -115.71,-78.62 -167.13,-104.84 -77.14,-39.3 -154.28,-78.61 -231.43,-131.01zm-707.13 353.77l-180.01 0 -12.85 -117.92c0,-52.44 -12.87,-104.84 -38.57,-157.24l0 222.73c0,13.12 0,52.43 0,78.61l12.85 0 77.14 0c51.42,0 89.99,-13.09 141.44,-26.18zm-231.43 -1048.22l0 275.15c25.7,-52.4 38.57,-117.92 38.57,-170.32l12.85 -104.83 -38.57 0 -12.85 0zm-1722.86 1113.71l180.01 0c0,0 0,0 12.85,0 0,-26.18 0,-65.49 0,-78.61l0 -419.27 -192.86 497.88zm-655.71 -13.09c0,0 0,0 0,0 12.84,13.09 51.41,13.09 64.29,13.09l128.56 0 -205.7 -497.88 0 366.87c0,39.3 0,78.61 12.85,117.92zm1658.56 -1153.02l0 0 -180.01 0c0,0 0,0 -12.84,13.09 0,13.09 0,52.4 0,65.52l0 1008.89c0,13.12 0,52.43 0,78.61 0,0 12.84,0 12.84,0l90.02 0 179.98 0c12.88,0 12.88,0 25.73,0 0,-26.18 0,-65.49 0,-78.61l0 -995.79c0,-26.22 0,-52.4 0,-78.62 -12.85,-13.09 -12.85,-13.09 -25.73,-13.09l-89.99 0zm1375.73 379.95l0 39.31 -282.88 0 -25.69 -117.92 0 733.76c51.41,-52.4 89.99,-131.02 102.83,-209.64l25.73 -104.83 167.13 0 0 -52.4 192.86 0c-51.42,-52.43 -102.84,-117.92 -141.41,-183.44 -12.88,-39.31 -25.73,-65.53 -38.57,-104.84zm2687.11 78.62l-167.13 0 -25.72 -104.8c-25.7,-91.74 -64.27,-183.45 -128.56,-248.97 -64.3,-52.4 -128.56,-78.62 -205.71,-78.62 -64.29,0 -115.71,26.22 -167.16,65.53 -51.42,39.3 -89.99,78.61 -115.71,144.14 -38.58,104.8 -51.42,222.72 -51.42,327.55 0,117.92 12.84,222.76 38.57,327.56 25.72,78.61 51.42,144.14 115.71,196.54 51.42,39.3 115.72,52.43 180.01,52.43 64.27,0 115.72,-13.13 179.98,-52.43 77.14,-39.31 141.44,-117.93 192.86,-183.42l154.28 -183.45c0,-52.4 -12.84,-91.71 -12.84,-144.14 0,-39.3 12.84,-78.61 12.84,-117.92zm115.72 -353.77c38.57,-65.49 77.14,-131.02 128.59,-183.42 167.13,-183.44 385.71,-262.06 629.99,-248.97 257.15,-13.09 475.7,65.53 655.71,248.97 167.13,183.42 244.28,406.17 244.28,655.11 0,222.76 -51.42,419.3 -179.98,589.62 -180.01,235.85 -411.44,353.77 -707.16,353.77 -282.85,0 -527.13,-104.8 -707.14,-340.65 -38.57,-39.3 -64.29,-104.83 -89.99,-157.23l0 157.23 -38.57 39.31c-77.14,91.71 -180.01,170.33 -295.72,222.73 -115.71,52.43 -231.43,78.61 -359.99,78.61 -167.16,0 -321.45,-39.31 -462.86,-117.92 -141.43,-78.62 -257.15,-183.42 -334.29,-340.65 -12.85,-26.21 -25.73,-52.43 -38.57,-78.61 -12.85,144.1 -77.15,262.03 -180.01,353.77 -115.72,131.01 -270,183.41 -437.13,183.41 -64.3,0 -115.72,-13.09 -167.14,-26.18 -51.45,-13.13 -115.71,-26.22 -167.16,-52.43 0,0 -12.85,-13.1 -12.85,-13.1 0,0 0,0 0,0l-38.57 91.71 -257.15 0 0 -39.31 -1362.85 0 0 0 -1002.85 0 0 -301.34 -128.56 301.34 -205.74 0 -115.71 -301.34 0 301.34 -758.55 0 0 -314.46 141.41 0 12.88 0c0,0 12.84,0 25.69,0 0,-13.09 12.88,-13.09 0,-13.09 12.88,0 12.88,-13.09 12.88,-13.09 0,-39.31 0,-65.53 0,-91.74l0 -969.58c0,-13.12 0,-39.3 0,-65.52 0,-13.09 -12.88,-13.09 -12.88,-13.09l-179.98 0 0 -314.46 810 0 295.69 773.03 308.57 -773.03 2172.88 0 0 393.07c25.69,-91.73 77.14,-183.44 141.4,-262.06 115.72,-104.83 257.16,-157.23 411.44,-157.23 64.3,0 115.72,0 180.01,13.09 38.57,13.13 89.99,39.31 128.56,52.43l12.85 -65.52 270 0 25.72 773.07 -167.13 0c51.42,39.3 102.84,91.7 141.41,131.01 12.88,26.22 25.72,39.31 25.72,52.4l0 0c0,-170.32 51.42,-327.55 128.57,-484.79 77.14,-144.13 192.85,-262.06 334.29,-353.77 141.44,-78.61 295.72,-117.92 462.86,-117.92 128.56,0 244.27,26.22 359.99,78.62 12.87,0 25.72,0 38.57,13.09l12.88 -91.71 295.69 0 0 445.48z"/>
  <path class="fil3" d="M9340.73 15722.04l0 -52.4 51.42 0c38.57,0 77.14,0 89.99,-13.12 25.72,-13.1 38.57,-39.31 51.45,-52.4 12.84,-26.22 12.84,-65.53 12.84,-144.14l0 -995.79c0,-78.62 0,-131.02 -12.84,-144.14 -12.88,-26.19 -25.73,-39.31 -51.45,-52.4 -12.85,-13.1 -51.42,-26.22 -89.99,-26.22l-51.42 0 0 -39.31 642.84 0c167.16,0 308.57,26.22 411.43,65.53 128.56,65.52 218.58,157.23 295.73,275.15 64.26,131.02 89.99,262.07 89.99,419.3 0,104.8 -12.85,209.63 -51.42,301.34 -25.73,78.61 -64.3,157.23 -115.72,222.75 -51.44,52.4 -115.71,104.83 -180.01,131.02 -64.29,39.31 -154.28,65.52 -244.27,91.74 -51.45,0 -115.71,13.09 -205.73,13.09l-642.84 0zm552.85 -1441.3l0 1192.36c0,65.49 0,91.71 0,117.92 12.84,13.1 25.72,13.1 38.57,26.19 12.84,13.12 38.57,13.12 77.14,13.12 115.71,0 205.7,-39.31 270,-117.92 77.14,-117.93 128.56,-301.37 128.56,-537.22 0,-196.54 -38.57,-353.77 -89.99,-471.7 -51.42,-91.7 -102.87,-157.23 -180.01,-183.44 -51.42,-26.19 -128.56,-39.31 -244.27,-39.31z"/>
  <path class="fil3" d="M11693.58 14175.94c231.43,0 411.41,65.49 552.85,209.63 141.44,157.23 218.58,340.68 218.58,563.4 0,196.54 -51.45,366.9 -154.29,511.01 -141.43,196.54 -347.14,288.27 -604.29,288.27 -257.15,0 -450.01,-91.73 -591.42,-275.15 -115.71,-144.14 -167.16,-314.46 -167.16,-524.13 0,-222.72 77.14,-406.17 218.58,-563.4 141.44,-144.14 321.42,-209.63 527.15,-209.63zm12.85 78.61c-128.56,0 -231.43,65.5 -295.72,209.64 -51.42,117.92 -77.15,275.15 -77.15,497.91 0,262.03 38.57,445.48 128.59,576.49 51.42,91.74 141.41,131.05 244.28,131.05 77.14,0 128.56,-26.22 180.01,-52.43 64.26,-52.4 115.71,-131.02 141.41,-235.85 38.57,-104.8 51.45,-235.85 51.45,-406.17 0,-196.54 -12.88,-353.77 -51.45,-458.6 -25.7,-91.71 -77.15,-170.33 -128.56,-209.63 -51.42,-39.31 -115.72,-52.41 -192.86,-52.41z"/>
  <path class="fil3" d="M13583.58 15197.94l385.71 -995.82 578.57 0 0 39.31 -51.45 0c-38.57,0 -64.26,13.12 -89.99,26.22 -25.72,13.09 -38.57,26.21 -51.41,52.4 0,13.12 -12.88,65.52 -12.88,131.04l0 1008.89c0,78.61 12.88,117.92 12.88,144.14 12.84,13.09 25.69,39.3 51.41,52.4 25.73,13.12 51.42,13.12 89.99,13.12l51.45 0 0 52.4 -745.73 0 0 -52.4 51.45 0c38.57,0 77.14,0 89.99,-13.12 25.72,-13.1 38.57,-39.31 51.42,-52.4 0,-26.22 12.87,-65.53 12.87,-144.14l0 -1126.81 -552.87 1388.87 -25.7 0 -552.87 -1375.78 0 1061.32c0,78.61 0,117.92 0,144.13 12.87,39.31 38.57,65.5 64.29,91.71 25.73,26.22 77.15,26.22 141.44,26.22l0 52.4 -488.58 0 0 -52.4 12.85 0c38.57,13.09 64.29,0 90.02,-13.12 25.69,-13.1 51.42,-26.19 64.26,-39.31 12.88,-26.19 25.73,-52.4 25.73,-91.71 12.84,0 12.84,-39.31 12.84,-104.83l0 -969.58c0,-65.52 -12.84,-117.92 -12.84,-144.13 -12.85,-13.1 -25.73,-26.22 -51.42,-39.31 -25.73,-13.1 -51.45,-26.22 -90.02,-26.22l-51.42 0 0 -39.31 578.57 0 411.44 995.82z"/>
  <path class="fil3" d="M15267.84 14280.74l0 628.93 25.73 0c89.99,0 154.28,-39.31 192.85,-91.71 51.42,-65.53 77.15,-157.23 89.99,-275.16l38.57 0 0 799.25 -38.57 0c-12.84,-91.71 -38.57,-157.23 -64.26,-209.63 -25.73,-65.52 -51.45,-91.71 -90.02,-117.92 -38.57,-13.1 -89.99,-26.22 -154.29,-26.22l0 432.39c0,78.61 0,131.04 12.88,144.14 0,26.21 12.85,39.31 38.57,52.4 12.85,13.12 38.57,13.12 89.99,13.12l77.14 0c141.44,0 244.28,-26.21 321.42,-91.74 77.14,-65.49 141.44,-170.32 180.01,-301.34l38.57 0 -64.29 484.79 -1234.29 0 0 -52.4 38.57 0c51.45,0 77.15,0 102.87,-13.12 12.85,-13.1 38.57,-39.31 38.57,-52.4 12.85,-26.22 12.85,-65.53 12.85,-144.14l0 -995.79c0,-78.62 0,-117.93 0,-131.02 -12.85,-26.21 -25.69,-52.43 -38.57,-65.52 -25.7,-13.1 -64.27,-26.22 -115.72,-26.22l-38.57 0 0 -39.31 1195.72 0 0 445.51 -51.42 0c-12.85,-104.83 -38.57,-183.44 -77.15,-235.84 -38.57,-52.43 -89.99,-78.62 -154.28,-104.83 -38.57,-13.1 -115.72,-26.22 -231.43,-26.22l-141.44 0z"/>
  <path class="fil3" d="M17067.85 14162.82l12.85 511 -38.58 0c-25.69,-131.02 -77.14,-235.85 -154.28,-314.46 -77.14,-78.62 -167.13,-104.81 -257.12,-104.81 -77.15,0 -128.59,13.1 -167.17,52.41 -51.41,39.3 -64.26,91.7 -64.26,144.13 0,26.19 0,65.5 25.69,91.71 12.88,26.22 51.45,65.53 90.02,104.83 38.57,26.19 115.72,65.5 231.43,131.02 167.13,78.62 282.85,170.32 334.27,248.94 64.29,65.52 90.02,157.23 90.02,262.06 0,131.02 -51.45,235.85 -141.44,327.56 -89.99,91.74 -205.71,131.04 -347.14,131.04 -51.42,0 -89.99,0 -128.57,-13.12 -38.57,-13.09 -90.02,-26.18 -154.28,-52.4 -38.57,-13.09 -64.3,-26.21 -90.02,-26.21 -12.85,0 -25.7,13.12 -51.42,26.21 -25.72,13.09 -38.57,39.31 -51.42,65.52l-38.57 0 0 -563.43 38.57 0c38.57,157.23 89.99,275.16 179.98,366.89 90.02,78.62 180.01,117.93 282.88,117.93 77.14,0 141.41,-13.12 192.86,-65.52 38.57,-39.31 64.26,-91.71 64.26,-157.24 0,-39.3 0,-65.52 -25.69,-104.83 -12.88,-26.18 -38.57,-65.49 -77.15,-91.71 -38.57,-39.3 -102.86,-78.61 -192.85,-117.92 -128.59,-65.52 -231.43,-131.02 -282.88,-170.32 -64.27,-52.43 -102.84,-104.83 -128.56,-170.36 -38.57,-52.4 -51.42,-117.92 -51.42,-196.54 0,-117.92 38.57,-222.72 128.56,-301.34 77.14,-91.74 192.86,-131.04 308.57,-131.04 51.42,0 102.87,13.12 141.44,26.21 38.57,0 77.14,13.09 115.72,39.31 51.41,26.21 89.98,39.31 102.83,39.31 12.88,0 38.57,0 38.57,-13.1 12.88,-13.12 25.73,-39.3 38.57,-91.73l25.73 0z"/>
  <path class="fil3" d="M18713.57 14162.82l0 524.12 -38.57 0c-25.73,-131.05 -90.02,-235.85 -167.16,-314.46 -89.99,-65.52 -179.98,-104.83 -295.7,-104.83 -90.02,0 -167.16,26.21 -244.3,78.61 -77.15,52.4 -128.56,131.02 -154.29,209.63 -51.42,117.93 -77.14,248.98 -77.14,379.99 0,131.02 25.72,262.06 51.45,366.86 38.57,117.93 89.99,196.54 154.28,262.07 64.27,52.4 154.29,78.61 270,78.61 89.99,0 167.14,-13.09 244.28,-65.52 77.14,-39.31 154.28,-104.8 231.43,-209.63l0 131.01c-77.15,91.74 -154.29,157.24 -244.28,196.54 -90.02,39.31 -192.86,52.43 -308.57,52.43 -154.29,0 -282.88,-26.21 -398.59,-91.73 -115.71,-65.5 -218.55,-157.24 -282.85,-288.25 -64.29,-117.93 -89.99,-248.94 -89.99,-379.99 0,-144.11 38.57,-288.25 102.84,-419.26 77.14,-117.93 167.16,-222.76 295.72,-301.37 115.72,-65.53 244.28,-104.83 385.72,-104.83 89.99,0 205.7,26.21 308.57,65.52 64.29,26.21 115.71,52.4 128.56,52.4 25.72,0 38.57,-13.09 64.29,-26.19 12.85,-26.21 25.73,-52.43 25.73,-91.73l38.57 0z"/>
  <path class="fil3" d="M19613.56 14175.94c231.43,0 411.44,65.49 552.84,209.63 141.44,157.23 218.59,340.68 218.59,563.4 0,196.54 -51.42,366.9 -167.14,511.01 -128.59,196.54 -334.29,288.27 -591.44,288.27 -257.13,0 -449.98,-91.73 -591.42,-275.15 -115.72,-144.14 -167.13,-314.46 -167.13,-524.13 0,-222.72 64.26,-406.17 218.55,-563.4 141.44,-144.14 321.45,-209.63 527.15,-209.63zm12.85 78.61c-128.57,0 -231.43,65.5 -295.7,209.64 -51.45,117.92 -90.02,275.15 -90.02,497.91 0,262.03 51.45,445.48 128.59,576.49 64.27,91.74 154.29,131.05 257.13,131.05 77.14,0 128.59,-26.22 180.01,-52.43 64.29,-52.4 115.71,-131.02 141.43,-235.85 38.58,-104.8 51.42,-235.85 51.42,-406.17 0,-196.54 -12.84,-353.77 -51.42,-458.6 -38.57,-91.71 -77.14,-170.33 -128.59,-209.63 -64.26,-39.31 -115.71,-52.41 -192.85,-52.41z"/>
  <path class="fil4" d="M17916.42 9393.47c-321.42,890.99 -925.71,1454.39 -1967.14,1637.84l0 -1048.22 0 0 0 0 0 0 0 0 0 0 0 -13.09 0 0 0 0 0 -13.13 0 -13.09 0 0 0 -13.09 0 -13.12 0 -26.19 0 -13.12 0 -26.19 0 -13.12 0 -26.19 0 -39.3 0 -26.22 0 -39.31 0 -26.21 0 -52.4 0 -39.31 0 -52.4 0 -52.43 0 -52.4 0 -52.4 0 -65.53 0 -78.61 0 -65.52 0 -78.62 0 -78.62 0 -91.7 0 -91.71 0 -91.74 0 -104.8 0 -104.83 0 -117.93 0 -117.92 0 -117.92 0 -131.02 0 -144.14 0 -144.14 0 -995.79 0 -196.54 0 -196.54 0 -78.61 0 -2332.26c398.56,1336.47 977.13,3066.02 2160,3590.11l-848.57 0 0 1847.47 655.71 0z"/>
  <path class="fil5" d="M15409.28 10965.79c-102.87,0 -565.72,0 -810,-52.4 -1054.27,-196.54 -1864.27,-1166.15 -1864.27,-2345.39 0,-1284.06 964.28,-2332.25 2172.84,-2384.68l0 -2201.24 0 -157.24 154.29 0 565.72 0 0 157.24 -565.72 0 0 2358.47 -154.29 0c-1118.57,52.43 -2018.56,1035.13 -2018.56,2227.45 0,1087.53 771.43,2017.8 1748.56,2227.46 89.99,13.09 231.43,13.09 334.3,26.19l437.13 144.14z"/>
  <path class="fil5" d="M15705 11031.31c-1375.72,-39.31 -2301.43,-1113.74 -2301.43,-2384.69 0,-1270.94 990.01,-2319.16 2301.43,-2358.47l0 1637.84c-25.72,0 -38.57,-13.13 -64.29,0 -347.14,39.3 -668.56,340.64 -655.71,733.72 12.84,419.3 295.72,720.67 655.71,746.85 25.72,0 38.57,-13.09 64.29,-13.09l0 1637.84z"/>
  <path class="fil5" d="M14843.56 10887.17c-102.84,0 -552.85,0 -810,-39.31 -1054.28,-209.63 -1851.43,-1166.14 -1851.43,-2332.26 0,-1270.97 964.29,-2306.07 2160,-2358.47l0 -2175.05 0 -157.24 154.28 0 270 0 0 157.24 -270 0 0 2332.28 -154.28 0 0 0c-1118.57,52.4 -2005.71,1022.01 -2005.71,2201.24 0,1074.41 758.58,2004.71 1748.59,2201.25 89.99,13.09 231.43,26.18 334.26,26.18l424.29 144.14z"/>
  <path class="fil5" d="M15692.13 11031.31c-102.84,-13.12 -1890,-104.83 -2224.26,-183.45 -1054.31,-196.54 -1851.43,-1166.14 -1851.43,-2332.26 0,-1270.97 964.28,-2306.07 2160,-2358.47l0 -2175.05 0 -157.24 154.28 0 295.7 0 0 157.24 -295.7 0 0 2332.28 -154.28 0 0 0c-1118.57,52.4 -2005.71,1022.01 -2005.71,2201.24 0,1087.5 758.55,2004.71 1748.55,2201.25 89.99,13.09 231.43,26.18 334.3,26.18l1838.55 288.28z"/>
 </g>
</svg>
